%TF.GenerationSoftware,KiCad,Pcbnew,(6.0.7)*%
%TF.CreationDate,2022-09-18T23:27:57+03:00*%
%TF.ProjectId,groundPatch,67726f75-6e64-4506-9174-63682e6b6963,rev?*%
%TF.SameCoordinates,Original*%
%TF.FileFunction,Soldermask,Top*%
%TF.FilePolarity,Negative*%
%FSLAX46Y46*%
G04 Gerber Fmt 4.6, Leading zero omitted, Abs format (unit mm)*
G04 Created by KiCad (PCBNEW (6.0.7)) date 2022-09-18 23:27:57*
%MOMM*%
%LPD*%
G01*
G04 APERTURE LIST*
%ADD10C,1.000000*%
%ADD11C,0.200000*%
G04 APERTURE END LIST*
D10*
%TO.C,TP1*%
X156900000Y-111307820D02*
X156900000Y-114907800D01*
X147900000Y-114907800D02*
X147900000Y-111307820D01*
X150600000Y-84407800D02*
X154200000Y-84407800D01*
X141751000Y-107707820D02*
X141751000Y-104107820D01*
X147900000Y-111307820D02*
X156900000Y-111307820D01*
X156900000Y-114907800D02*
X147900000Y-114907800D01*
X135602100Y-96907820D02*
X150600000Y-96907820D01*
X169197900Y-96907820D02*
X169197900Y-100507820D01*
X141751000Y-104107820D02*
X163049000Y-104107820D01*
X135602100Y-100507820D02*
X135602100Y-96907820D01*
X163049000Y-104107820D02*
X163049000Y-107707820D01*
X154200000Y-84407800D02*
X154200000Y-96907820D01*
X150600000Y-96907820D02*
X150600000Y-84407800D01*
X169197900Y-100507820D02*
X135602100Y-100507820D01*
X163049000Y-107707820D02*
X141751000Y-107707820D01*
X154200000Y-96907820D02*
X169197900Y-96907820D01*
G36*
X154200000Y-96907820D02*
G01*
X169197900Y-96907820D01*
X169197900Y-100507820D01*
X135602100Y-100507820D01*
X135602100Y-96907820D01*
X150600000Y-96907820D01*
X150600000Y-84407800D01*
X154200000Y-84407800D01*
X154200000Y-96907820D01*
G37*
D11*
X154200000Y-96907820D02*
X169197900Y-96907820D01*
X169197900Y-100507820D01*
X135602100Y-100507820D01*
X135602100Y-96907820D01*
X150600000Y-96907820D01*
X150600000Y-84407800D01*
X154200000Y-84407800D01*
X154200000Y-96907820D01*
G36*
X156900000Y-114907800D02*
G01*
X147900000Y-114907800D01*
X147900000Y-111307820D01*
X156900000Y-111307820D01*
X156900000Y-114907800D01*
G37*
X156900000Y-114907800D02*
X147900000Y-114907800D01*
X147900000Y-111307820D01*
X156900000Y-111307820D01*
X156900000Y-114907800D01*
G36*
X163049000Y-107707820D02*
G01*
X141751000Y-107707820D01*
X141751000Y-104107820D01*
X163049000Y-104107820D01*
X163049000Y-107707820D01*
G37*
X163049000Y-107707820D02*
X141751000Y-107707820D01*
X141751000Y-104107820D01*
X163049000Y-104107820D01*
X163049000Y-107707820D01*
D10*
X133233300Y-90981700D02*
X133086821Y-92122237D01*
X132959873Y-93348225D01*
X132852455Y-94647455D01*
X132764568Y-96007721D01*
X132696212Y-97416816D01*
X132647385Y-98862532D01*
X132618090Y-100332662D01*
X132608325Y-101815000D01*
X132618090Y-103297337D01*
X132647385Y-104767467D01*
X132696212Y-106213183D01*
X132764568Y-107622278D01*
X132852455Y-108982544D01*
X132959873Y-110281774D01*
X133086821Y-111507762D01*
X133233300Y-112648300D01*
X133233300Y-112648300D02*
X133400140Y-113694046D01*
X133697698Y-115090237D01*
X134066662Y-116294162D01*
X134523513Y-117322302D01*
X135084733Y-118191139D01*
X136023860Y-119130266D01*
X136892697Y-119691486D01*
X137920837Y-120148337D01*
X139124762Y-120517301D01*
X140520953Y-120814859D01*
X141566700Y-120981700D01*
X141566700Y-82648300D02*
X140520953Y-82815140D01*
X139124762Y-83112698D01*
X137920837Y-83481662D01*
X136892697Y-83938513D01*
X136023860Y-84499733D01*
X135084733Y-85438860D01*
X134523513Y-86307697D01*
X134066662Y-87335837D01*
X133697698Y-88539762D01*
X133400140Y-89935953D01*
X133233300Y-90981700D01*
X163233300Y-82648300D02*
X162092762Y-82501821D01*
X160866774Y-82374873D01*
X159567544Y-82267455D01*
X158207278Y-82179568D01*
X156798183Y-82111212D01*
X155352467Y-82062385D01*
X153882337Y-82033090D01*
X152400000Y-82023325D01*
X150917662Y-82033090D01*
X149447532Y-82062385D01*
X148001816Y-82111212D01*
X146592721Y-82179568D01*
X145232455Y-82267455D01*
X143933225Y-82374873D01*
X142707237Y-82501821D01*
X141566700Y-82648300D01*
X163233300Y-120981700D02*
X164279046Y-120814859D01*
X165675237Y-120517301D01*
X166879162Y-120148337D01*
X167907302Y-119691486D01*
X168776139Y-119130266D01*
X169715266Y-118191139D01*
X170276486Y-117322302D01*
X170733337Y-116294162D01*
X171102301Y-115090237D01*
X171399859Y-113694046D01*
X171566700Y-112648300D01*
X171566700Y-112648300D02*
X171713178Y-111507762D01*
X171840126Y-110281774D01*
X171947544Y-108982544D01*
X172035431Y-107622278D01*
X172103787Y-106213183D01*
X172152614Y-104767467D01*
X172181909Y-103297337D01*
X172191675Y-101815000D01*
X172181909Y-100332662D01*
X172152614Y-98862532D01*
X172103787Y-97416816D01*
X172035431Y-96007721D01*
X171947544Y-94647455D01*
X171840126Y-93348225D01*
X171713178Y-92122237D01*
X171566700Y-90981700D01*
X171566700Y-90981700D02*
X171399859Y-89935953D01*
X171102301Y-88539762D01*
X170733337Y-87335837D01*
X170276486Y-86307697D01*
X169715266Y-85438860D01*
X168776139Y-84499733D01*
X167907302Y-83938513D01*
X166879162Y-83481662D01*
X165675237Y-83112698D01*
X164279046Y-82815140D01*
X163233300Y-82648300D01*
X141566700Y-120981700D02*
X142707237Y-121128178D01*
X143933225Y-121255126D01*
X145232455Y-121362544D01*
X146592721Y-121450431D01*
X148001816Y-121518787D01*
X149447532Y-121567614D01*
X150917662Y-121596909D01*
X152400000Y-121606675D01*
X153882337Y-121596909D01*
X155352467Y-121567614D01*
X156798183Y-121518787D01*
X158207278Y-121450431D01*
X159567544Y-121362544D01*
X160866774Y-121255126D01*
X162092762Y-121128178D01*
X163233300Y-120981700D01*
%TD*%
M02*
