%TF.GenerationSoftware,KiCad,Pcbnew,(6.0.7)*%
%TF.CreationDate,2022-09-18T23:27:57+03:00*%
%TF.ProjectId,groundPatch,67726f75-6e64-4506-9174-63682e6b6963,rev?*%
%TF.SameCoordinates,Original*%
%TF.FileFunction,Copper,L1,Top*%
%TF.FilePolarity,Positive*%
%FSLAX46Y46*%
G04 Gerber Fmt 4.6, Leading zero omitted, Abs format (unit mm)*
G04 Created by KiCad (PCBNEW (6.0.7)) date 2022-09-18 23:27:57*
%MOMM*%
%LPD*%
G01*
G04 APERTURE LIST*
G04 Aperture macros list*
%AMRoundRect*
0 Rectangle with rounded corners*
0 $1 Rounding radius*
0 $2 $3 $4 $5 $6 $7 $8 $9 X,Y pos of 4 corners*
0 Add a 4 corners polygon primitive as box body*
4,1,4,$2,$3,$4,$5,$6,$7,$8,$9,$2,$3,0*
0 Add four circle primitives for the rounded corners*
1,1,$1+$1,$2,$3*
1,1,$1+$1,$4,$5*
1,1,$1+$1,$6,$7*
1,1,$1+$1,$8,$9*
0 Add four rect primitives between the rounded corners*
20,1,$1+$1,$2,$3,$4,$5,0*
20,1,$1+$1,$4,$5,$6,$7,0*
20,1,$1+$1,$6,$7,$8,$9,0*
20,1,$1+$1,$8,$9,$2,$3,0*%
G04 Aperture macros list end*
%TA.AperFunction,SMDPad,CuDef*%
%ADD10RoundRect,0.381000X-0.762000X-0.381000X0.762000X-0.381000X0.762000X0.381000X-0.762000X0.381000X0*%
%TD*%
%TA.AperFunction,ViaPad*%
%ADD11C,0.800000*%
%TD*%
G04 APERTURE END LIST*
D10*
%TO.P,TP1,1,1*%
%TO.N,/_GND*%
X152400000Y-101815000D03*
%TD*%
D11*
%TO.N,/_GND*%
X139700000Y-114300000D03*
X165100000Y-114300000D03*
X165100000Y-88900000D03*
X139700000Y-88900000D03*
%TD*%
%TA.AperFunction,Conductor*%
%TO.N,/_GND*%
G36*
X152785286Y-80017353D02*
G01*
X153455852Y-80019259D01*
X153456570Y-80019263D01*
X153556153Y-80020114D01*
X154310143Y-80026555D01*
X154310541Y-80026559D01*
X154729238Y-80032547D01*
X155160762Y-80038718D01*
X155161498Y-80038731D01*
X156005621Y-80055739D01*
X156006375Y-80055756D01*
X156183342Y-80060381D01*
X156843684Y-80077637D01*
X156844192Y-80077652D01*
X157336321Y-80093545D01*
X157671920Y-80104383D01*
X157672722Y-80104411D01*
X158489193Y-80135988D01*
X158490030Y-80136023D01*
X159293594Y-80172450D01*
X159294472Y-80172493D01*
X160082946Y-80213751D01*
X160083874Y-80213803D01*
X160855756Y-80259901D01*
X160856743Y-80259964D01*
X161610003Y-80310887D01*
X161611060Y-80310963D01*
X162343785Y-80366696D01*
X162344927Y-80366788D01*
X163055061Y-80427300D01*
X163056303Y-80427412D01*
X163523850Y-80471919D01*
X163742282Y-80492712D01*
X163743617Y-80492846D01*
X164096306Y-80530292D01*
X164403192Y-80562876D01*
X164404701Y-80563046D01*
X165035981Y-80637773D01*
X165037681Y-80637986D01*
X165638806Y-80717448D01*
X165640786Y-80717725D01*
X166212033Y-80802482D01*
X166214334Y-80802846D01*
X166325508Y-80821453D01*
X166755892Y-80893486D01*
X166758558Y-80893961D01*
X167271374Y-80991164D01*
X167274432Y-80991783D01*
X167378217Y-81014130D01*
X167758896Y-81096098D01*
X167762336Y-81096891D01*
X168219141Y-81208877D01*
X168223022Y-81209894D01*
X168652825Y-81330059D01*
X168652829Y-81330060D01*
X168657221Y-81331375D01*
X169060610Y-81460151D01*
X169065473Y-81461813D01*
X169443404Y-81599683D01*
X169448727Y-81601763D01*
X169801952Y-81749092D01*
X169807671Y-81751647D01*
X170137281Y-81908885D01*
X170143363Y-81911993D01*
X170352560Y-82026154D01*
X170450455Y-82079576D01*
X170456825Y-82083298D01*
X170742758Y-82261809D01*
X170749265Y-82266158D01*
X171015519Y-82456333D01*
X171022014Y-82461298D01*
X171270112Y-82664037D01*
X171276433Y-82669564D01*
X171507969Y-82886030D01*
X171513960Y-82892020D01*
X171730437Y-83123569D01*
X171735963Y-83129890D01*
X171938707Y-83377993D01*
X171943672Y-83384488D01*
X172133835Y-83650726D01*
X172138184Y-83657233D01*
X172316701Y-83943174D01*
X172320423Y-83949544D01*
X172488005Y-84256635D01*
X172491113Y-84262717D01*
X172644242Y-84583710D01*
X172648349Y-84592320D01*
X172650910Y-84598053D01*
X172786170Y-84922343D01*
X172798246Y-84951296D01*
X172800312Y-84956582D01*
X172832804Y-85045648D01*
X172938175Y-85334490D01*
X172939837Y-85339354D01*
X173068625Y-85742781D01*
X173069939Y-85747170D01*
X173190100Y-86176955D01*
X173190102Y-86176963D01*
X173191131Y-86180889D01*
X173303100Y-86637627D01*
X173303901Y-86641105D01*
X173408213Y-87125556D01*
X173408832Y-87128613D01*
X173506040Y-87641453D01*
X173506515Y-87644119D01*
X173597153Y-88185663D01*
X173597518Y-88187970D01*
X173682276Y-88759227D01*
X173682551Y-88761192D01*
X173762030Y-89362434D01*
X173762225Y-89363990D01*
X173827911Y-89918908D01*
X173836950Y-89995268D01*
X173837120Y-89996776D01*
X173900599Y-90594648D01*
X173907157Y-90656419D01*
X173907294Y-90657782D01*
X173972590Y-91343727D01*
X173972702Y-91344969D01*
X174033218Y-92055162D01*
X174033310Y-92056304D01*
X174089035Y-92788928D01*
X174089111Y-92789985D01*
X174140033Y-93543223D01*
X174140096Y-93544210D01*
X174186198Y-94316145D01*
X174186250Y-94317073D01*
X174227508Y-95105576D01*
X174227551Y-95106454D01*
X174263978Y-95910025D01*
X174264013Y-95910862D01*
X174295589Y-96727306D01*
X174295616Y-96728079D01*
X174321398Y-97526435D01*
X174322346Y-97555797D01*
X174322369Y-97556572D01*
X174344241Y-98393543D01*
X174344258Y-98394297D01*
X174361268Y-99238487D01*
X174361281Y-99239223D01*
X174361548Y-99257866D01*
X174373275Y-100077895D01*
X174373436Y-100089177D01*
X174373441Y-100089629D01*
X174379887Y-100844079D01*
X174380735Y-100943324D01*
X174380738Y-100943773D01*
X174383065Y-101761831D01*
X174383172Y-101799609D01*
X174383172Y-101800325D01*
X174380740Y-102655845D01*
X174380736Y-102656563D01*
X174379885Y-102756189D01*
X174373642Y-103487070D01*
X174373446Y-103509959D01*
X174373440Y-103510510D01*
X174373274Y-103522127D01*
X174361281Y-104360760D01*
X174361268Y-104361496D01*
X174344260Y-105205621D01*
X174344243Y-105206375D01*
X174322369Y-106043432D01*
X174322365Y-106043571D01*
X174322347Y-106044192D01*
X174320119Y-106113172D01*
X174295616Y-106871926D01*
X174295588Y-106872728D01*
X174264011Y-107689193D01*
X174263976Y-107690030D01*
X174227549Y-108493594D01*
X174227506Y-108494472D01*
X174186248Y-109282946D01*
X174186196Y-109283874D01*
X174140098Y-110055756D01*
X174140035Y-110056743D01*
X174089111Y-110810012D01*
X174089035Y-110811069D01*
X174033303Y-111543784D01*
X174033211Y-111544926D01*
X173972698Y-112255069D01*
X173972586Y-112256311D01*
X173907290Y-112942258D01*
X173907156Y-112943589D01*
X173840885Y-113567757D01*
X173837120Y-113603217D01*
X173836951Y-113604718D01*
X173762237Y-114235904D01*
X173762230Y-114235961D01*
X173762027Y-114237582D01*
X173682551Y-114838801D01*
X173682550Y-114838812D01*
X173682273Y-114840791D01*
X173597517Y-115412033D01*
X173597152Y-115414340D01*
X173506513Y-115955893D01*
X173506039Y-115958556D01*
X173408834Y-116471379D01*
X173408234Y-116474341D01*
X173356761Y-116713399D01*
X173303904Y-116958880D01*
X173303103Y-116962358D01*
X173191127Y-117419124D01*
X173190108Y-117423012D01*
X173069934Y-117852846D01*
X173068619Y-117857237D01*
X172939846Y-118260618D01*
X172938184Y-118265481D01*
X172800322Y-118643391D01*
X172798242Y-118648714D01*
X172650916Y-119001932D01*
X172650913Y-119001938D01*
X172648352Y-119007671D01*
X172491120Y-119337268D01*
X172488006Y-119343362D01*
X172459550Y-119395508D01*
X172320419Y-119650461D01*
X172316697Y-119656831D01*
X172138180Y-119942773D01*
X172133831Y-119949280D01*
X171943668Y-120215517D01*
X171938712Y-120222001D01*
X171938703Y-120222012D01*
X171735962Y-120470112D01*
X171730436Y-120476432D01*
X171669755Y-120541337D01*
X171513961Y-120707977D01*
X171507971Y-120713968D01*
X171276437Y-120930431D01*
X171270116Y-120935956D01*
X171022012Y-121138702D01*
X171015521Y-121143665D01*
X170991674Y-121160698D01*
X170749272Y-121333836D01*
X170742765Y-121338185D01*
X170456821Y-121516703D01*
X170450451Y-121520425D01*
X170143353Y-121688011D01*
X170137270Y-121691119D01*
X169807665Y-121848355D01*
X169801946Y-121850910D01*
X169530080Y-121964304D01*
X169448703Y-121998246D01*
X169443417Y-122000312D01*
X169065489Y-122138182D01*
X169060645Y-122139837D01*
X168657218Y-122268625D01*
X168652828Y-122269939D01*
X168223014Y-122390108D01*
X168219118Y-122391129D01*
X168194745Y-122397104D01*
X167762342Y-122503107D01*
X167758865Y-122503908D01*
X167644740Y-122528482D01*
X167274388Y-122608225D01*
X167271426Y-122608825D01*
X166758580Y-122706034D01*
X166755918Y-122706508D01*
X166256293Y-122790130D01*
X166214320Y-122797155D01*
X166212013Y-122797520D01*
X165640781Y-122882275D01*
X165638808Y-122882551D01*
X165037574Y-122962029D01*
X165036018Y-122962224D01*
X164405904Y-123036811D01*
X164404741Y-123036949D01*
X164403233Y-123037119D01*
X163743557Y-123107159D01*
X163742259Y-123107290D01*
X163395408Y-123140307D01*
X163056271Y-123172590D01*
X163055029Y-123172702D01*
X162344836Y-123233218D01*
X162343694Y-123233310D01*
X161611062Y-123289036D01*
X161610005Y-123289112D01*
X160856776Y-123340033D01*
X160855789Y-123340096D01*
X160083854Y-123386198D01*
X160082926Y-123386250D01*
X159294423Y-123427508D01*
X159293545Y-123427551D01*
X158489974Y-123463978D01*
X158489137Y-123464013D01*
X157672693Y-123495589D01*
X157671891Y-123495617D01*
X157336329Y-123506454D01*
X156844053Y-123522351D01*
X156843545Y-123522366D01*
X156183459Y-123539616D01*
X156006456Y-123544241D01*
X156005702Y-123544258D01*
X155161512Y-123561268D01*
X155160776Y-123561281D01*
X154729315Y-123567451D01*
X154310681Y-123573438D01*
X154310283Y-123573442D01*
X153555920Y-123579887D01*
X153456675Y-123580735D01*
X153455957Y-123580739D01*
X152788986Y-123582636D01*
X152600320Y-123583172D01*
X152599616Y-123583172D01*
X152412214Y-123582639D01*
X151744153Y-123580740D01*
X151743435Y-123580736D01*
X151643814Y-123579885D01*
X150889853Y-123573444D01*
X150889455Y-123573440D01*
X150470760Y-123567452D01*
X150039239Y-123561281D01*
X150038503Y-123561268D01*
X149194378Y-123544260D01*
X149193624Y-123544243D01*
X149016657Y-123539618D01*
X148356315Y-123522362D01*
X148355807Y-123522347D01*
X147863646Y-123506453D01*
X147528073Y-123495616D01*
X147527271Y-123495588D01*
X146710806Y-123464011D01*
X146709969Y-123463976D01*
X145906405Y-123427549D01*
X145905527Y-123427506D01*
X145117053Y-123386248D01*
X145116125Y-123386196D01*
X144344243Y-123340098D01*
X144343256Y-123340035D01*
X143589987Y-123289111D01*
X143588930Y-123289035D01*
X142856215Y-123233303D01*
X142855073Y-123233211D01*
X142144930Y-123172698D01*
X142143688Y-123172586D01*
X141676579Y-123128121D01*
X141457726Y-123107288D01*
X141456391Y-123107154D01*
X140796774Y-123037119D01*
X140795275Y-123036950D01*
X140794405Y-123036847D01*
X140163975Y-122962222D01*
X140162401Y-122962025D01*
X139561203Y-122882552D01*
X139561188Y-122882550D01*
X139559208Y-122882273D01*
X138987966Y-122797517D01*
X138985659Y-122797152D01*
X138965751Y-122793820D01*
X138444102Y-122706512D01*
X138441440Y-122706038D01*
X138441419Y-122706034D01*
X137928620Y-122608834D01*
X137925658Y-122608234D01*
X137554906Y-122528405D01*
X137441119Y-122503904D01*
X137437641Y-122503103D01*
X137191777Y-122442830D01*
X136980853Y-122391121D01*
X136976987Y-122390108D01*
X136547137Y-122269929D01*
X136542762Y-122268619D01*
X136139381Y-122139846D01*
X136134518Y-122138184D01*
X135756608Y-122000322D01*
X135751285Y-121998242D01*
X135634850Y-121949677D01*
X135398047Y-121850907D01*
X135392321Y-121848349D01*
X135062719Y-121691114D01*
X135056635Y-121688005D01*
X134749538Y-121520419D01*
X134743168Y-121516697D01*
X134457226Y-121338180D01*
X134450719Y-121333831D01*
X134394546Y-121293709D01*
X134184467Y-121143657D01*
X134177998Y-121138712D01*
X133929880Y-120935956D01*
X133923566Y-120930435D01*
X133856354Y-120867597D01*
X133692022Y-120713961D01*
X133686031Y-120707971D01*
X133469568Y-120476437D01*
X133464043Y-120470116D01*
X133261297Y-120222012D01*
X133256331Y-120215517D01*
X133256331Y-120215516D01*
X133183886Y-120114090D01*
X133066163Y-119949272D01*
X133061814Y-119942765D01*
X132883296Y-119656821D01*
X132879574Y-119650451D01*
X132741977Y-119398307D01*
X132711988Y-119343353D01*
X132708874Y-119337258D01*
X132551644Y-119007665D01*
X132549083Y-119001932D01*
X132539525Y-118979015D01*
X132401753Y-118648703D01*
X132399687Y-118643417D01*
X132261814Y-118265481D01*
X132260162Y-118260645D01*
X132131374Y-117857218D01*
X132130059Y-117852826D01*
X132089196Y-117706668D01*
X132009891Y-117423014D01*
X132008868Y-117419110D01*
X131896892Y-116962342D01*
X131896091Y-116958865D01*
X131843237Y-116713399D01*
X131791774Y-116474388D01*
X131791174Y-116471426D01*
X131693961Y-115958559D01*
X131693490Y-115955914D01*
X131693487Y-115955893D01*
X131602844Y-115414319D01*
X131602479Y-115412013D01*
X131517724Y-114840781D01*
X131517447Y-114838801D01*
X131437976Y-114237604D01*
X131437763Y-114235904D01*
X131363047Y-113604718D01*
X131362877Y-113603209D01*
X131299697Y-113008142D01*
X131292840Y-112943557D01*
X131292706Y-112942226D01*
X131227409Y-112256271D01*
X131227297Y-112255029D01*
X131166781Y-111544836D01*
X131166689Y-111543694D01*
X131110963Y-110811062D01*
X131110887Y-110810005D01*
X131059966Y-110056776D01*
X131059903Y-110055789D01*
X131013801Y-109283854D01*
X131013749Y-109282926D01*
X130972491Y-108494423D01*
X130972448Y-108493545D01*
X130936021Y-107689974D01*
X130935986Y-107689137D01*
X130904410Y-106872693D01*
X130904382Y-106871891D01*
X130879830Y-106111612D01*
X130877648Y-106044053D01*
X130877630Y-106043432D01*
X130855758Y-105206456D01*
X130855741Y-105205702D01*
X130838731Y-104361512D01*
X130838718Y-104360776D01*
X130826725Y-103522127D01*
X130826561Y-103510681D01*
X130826555Y-103510096D01*
X130826359Y-103487070D01*
X130819609Y-102697026D01*
X130819264Y-102656682D01*
X130819260Y-102655964D01*
X130816828Y-101800325D01*
X130816828Y-101799609D01*
X130819259Y-100944147D01*
X130819263Y-100943429D01*
X130820114Y-100843846D01*
X130826555Y-100089856D01*
X130826561Y-100089317D01*
X130826725Y-100077895D01*
X130838407Y-99260970D01*
X130838718Y-99239237D01*
X130838731Y-99238501D01*
X130855739Y-98394378D01*
X130855756Y-98393624D01*
X130860381Y-98216657D01*
X130877639Y-97556243D01*
X130877657Y-97555653D01*
X130879730Y-97491487D01*
X130904383Y-96728079D01*
X130904411Y-96727277D01*
X130935988Y-95910806D01*
X130936023Y-95909969D01*
X130972450Y-95106405D01*
X130972493Y-95105527D01*
X131013751Y-94317053D01*
X131013803Y-94316125D01*
X131059901Y-93544243D01*
X131059964Y-93543256D01*
X131110887Y-92789996D01*
X131110963Y-92788939D01*
X131166696Y-92056214D01*
X131166788Y-92055072D01*
X131227300Y-91344938D01*
X131227412Y-91343696D01*
X131292710Y-90657732D01*
X131292847Y-90656369D01*
X131362876Y-89996807D01*
X131363046Y-89995298D01*
X131437773Y-89364019D01*
X131437986Y-89362319D01*
X131517448Y-88761192D01*
X131517725Y-88759212D01*
X131602482Y-88187966D01*
X131602847Y-88185659D01*
X131693486Y-87644107D01*
X131693961Y-87641441D01*
X131791164Y-87128625D01*
X131791783Y-87125567D01*
X131896094Y-86641122D01*
X131896895Y-86637644D01*
X131952402Y-86411224D01*
X132008877Y-86180858D01*
X132009900Y-86176955D01*
X132073880Y-85948115D01*
X132130061Y-85747168D01*
X132131375Y-85742778D01*
X132260151Y-85339389D01*
X132261813Y-85334526D01*
X132399683Y-84956595D01*
X132401763Y-84951272D01*
X132540727Y-84618103D01*
X132549092Y-84598047D01*
X132551647Y-84592328D01*
X132708885Y-84262718D01*
X132711999Y-84256624D01*
X132733718Y-84216826D01*
X132879576Y-83949544D01*
X132883298Y-83943174D01*
X133061809Y-83657241D01*
X133066158Y-83650734D01*
X133256333Y-83384480D01*
X133261298Y-83377985D01*
X133464037Y-83129887D01*
X133469564Y-83123566D01*
X133686030Y-82892030D01*
X133692020Y-82886039D01*
X133923569Y-82669562D01*
X133929890Y-82664036D01*
X134177993Y-82461292D01*
X134184488Y-82456327D01*
X134450726Y-82266164D01*
X134457233Y-82261815D01*
X134743174Y-82083298D01*
X134749544Y-82079576D01*
X134846490Y-82026671D01*
X135056635Y-81911994D01*
X135062717Y-81908886D01*
X135392334Y-81751644D01*
X135398053Y-81749089D01*
X135751296Y-81601753D01*
X135756582Y-81599687D01*
X136134510Y-81461817D01*
X136139354Y-81460162D01*
X136542781Y-81331374D01*
X136547173Y-81330059D01*
X136976985Y-81209891D01*
X136980881Y-81208870D01*
X137437629Y-81096899D01*
X137441105Y-81096098D01*
X137925556Y-80991786D01*
X137928613Y-80991167D01*
X138367714Y-80907936D01*
X138441456Y-80893958D01*
X138444119Y-80893484D01*
X138780238Y-80837228D01*
X138985664Y-80802846D01*
X138987970Y-80802481D01*
X139559227Y-80717723D01*
X139561207Y-80717446D01*
X140162395Y-80637976D01*
X140164095Y-80637763D01*
X140795291Y-80563046D01*
X140796800Y-80562876D01*
X140970372Y-80544447D01*
X141456450Y-80492839D01*
X141457748Y-80492708D01*
X141804608Y-80459690D01*
X142143727Y-80427409D01*
X142144969Y-80427297D01*
X142855162Y-80366781D01*
X142856304Y-80366689D01*
X143588928Y-80310964D01*
X143589985Y-80310888D01*
X144343223Y-80259966D01*
X144344210Y-80259903D01*
X145116145Y-80213801D01*
X145117073Y-80213749D01*
X145905576Y-80172491D01*
X145906454Y-80172448D01*
X146710025Y-80136021D01*
X146710862Y-80135986D01*
X147527306Y-80104410D01*
X147528108Y-80104382D01*
X147863648Y-80093546D01*
X148355951Y-80077648D01*
X148356459Y-80077633D01*
X149016584Y-80060382D01*
X149193543Y-80055758D01*
X149194297Y-80055741D01*
X150038487Y-80038731D01*
X150039223Y-80038718D01*
X150470684Y-80032548D01*
X150889318Y-80026561D01*
X150889716Y-80026557D01*
X151644102Y-80020112D01*
X151743317Y-80019264D01*
X151744035Y-80019260D01*
X152413507Y-80017357D01*
X152599680Y-80016828D01*
X152600384Y-80016828D01*
X152785286Y-80017353D01*
G37*
%TD.AperFunction*%
%TD*%
M02*
